<svg width="269" height="112" viewBox="0 0 269 112" fill="none" xmlns="http://www.w3.org/2000/svg">
<path d="M28.9715 37.9C31.1048 38.7 32.7048 39.3333 33.7715 39.8C34.9048 40.2 36.4382 40.8333 38.3715 41.7C40.3048 42.5667 41.7715 43.3667 42.7715 44.1C43.7715 44.7667 44.9382 45.6667 46.2715 46.8C47.6048 47.8667 48.6048 49 49.2715 50.2C49.9382 51.3333 50.4715 52.7 50.8715 54.3C51.3382 55.9 51.5382 57.6 51.4715 59.4C51.3382 61.8667 50.6048 64.2667 49.2715 66.6C47.9382 68.8667 46.0048 70.8333 43.4715 72.5C38.7382 75.7 32.6382 77.2667 25.1715 77.2C19.3048 77.3333 14.3382 75.7333 10.2715 72.4C8.93815 71.3333 7.80482 70.1333 6.87148 68.8L6.67148 68.6C6.20482 67.9333 5.73815 67.5667 5.27148 67.5C4.73815 67.3667 4.17148 67.5333 3.57148 68C3.10482 68.3333 2.73815 68.3 2.47148 67.9C2.27148 67.6333 2.23815 67.3333 2.37148 67C2.83815 66.0667 3.17148 64.9667 3.37148 63.7C3.57148 62.5 3.63815 61.1667 3.57148 59.7V59.6V59.5V59.4V59.3L3.67148 59.2V59.1H3.77148V59H3.87148V58.9H3.97148H4.07148L4.17148 58.8H4.27148H4.37148H4.47148H4.57148V58.9H4.67148H4.77148V59H4.87148V59.1H4.97148V59.2H5.07148V59.3V59.4H5.17148V59.5C5.37148 61.3 5.73815 62.9 6.27148 64.3C6.27148 64.3667 6.30482 64.4667 6.37148 64.6C7.43815 67.2 9.07149 69.4 11.2715 71.2C15.0715 74.2667 19.7048 75.7333 25.1715 75.6C30.1715 75.5333 34.4382 74.0333 37.9715 71.1C41.7048 68.0333 43.5715 64.5333 43.5715 60.6C43.5715 57 41.9382 53.9 38.6715 51.3C36.2048 49.3 32.3048 47.3 26.9715 45.3C26.0382 44.9 24.6715 44.4 22.8715 43.8C20.9382 43.0667 19.4715 42.5333 18.4715 42.2C17.4715 41.8 16.1382 41.2333 14.4715 40.5C12.8048 39.7 11.5382 39 10.6715 38.4C9.80482 37.7333 8.80482 36.9 7.67148 35.9C6.60482 34.9 5.80482 33.8667 5.27148 32.8C4.80482 31.6667 4.40482 30.3667 4.07148 28.9C3.80482 27.3667 3.77148 25.7 3.97148 23.9C4.50482 18.9667 7.07148 14.8667 11.6715 11.6C16.0715 8.46666 21.4382 6.93333 27.7715 7C27.8382 7 27.8715 7 27.8715 7C32.9382 7.06666 37.6048 8.29999 41.8715 10.7C46.0048 13.0333 48.6382 15.9667 49.7715 19.5C49.8382 19.7 49.9048 19.9 49.9715 20.1C50.2382 21.6333 50.2048 23.0333 49.8715 24.3C49.3382 25.9 48.4715 26.8667 47.2715 27.2L47.0715 27.3C46.8048 27.3 46.5382 27.3 46.2715 27.3H46.1715C45.5715 27.2333 45.0382 26.9667 44.5715 26.5C44.1048 26.0333 43.7715 25.4 43.5715 24.6C43.4382 24 43.4048 23.3667 43.4715 22.7V22.6C43.7382 18.3333 42.5715 15.0333 39.9715 12.7C37.3715 10.3 33.3048 8.93333 27.7715 8.6C23.3048 8.8 19.4715 10.2667 16.2715 13C13.0715 15.7333 11.3715 18.9333 11.1715 22.6C11.1048 24.2667 11.3382 25.8 11.8715 27.2C12.4715 28.5333 13.1382 29.6333 13.8715 30.5C14.6048 31.3667 15.7382 32.2333 17.2715 33.1C18.8715 33.9667 20.2048 34.6333 21.2715 35.1C22.3382 35.5 23.9715 36.1 26.1715 36.9L28.9715 37.9ZM76.3824 75.3C76.9824 75.3 77.2491 75.5667 77.1824 76.1C77.1824 76.6333 76.9158 76.9 76.3824 76.9C76.1824 76.9 76.0158 76.9 75.8824 76.9H75.7824H75.6824C73.6158 76.7667 71.6824 76.3 69.8824 75.5L69.6824 75.4C69.6158 75.3333 69.5158 75.3 69.3824 75.3V75.2H69.1824L69.0824 75.1H68.9824V75H68.8824H68.7824L68.6824 74.9L68.5824 74.8H68.4824L68.3824 74.7L68.1824 74.6L68.0824 74.5H67.9824L67.8824 74.4L67.7824 74.3H67.6824L67.5824 74.2L67.3824 74.1L67.2824 74L67.1824 73.9C66.9824 73.7667 66.7824 73.6 66.5824 73.4L66.4824 73.3H66.3824L66.2824 73.2L66.1824 73.1L65.9824 73L65.8824 72.9V72.8L65.7824 72.7H65.6824L65.5824 72.5H65.4824V72.4H65.3824V72.3H65.2824V72.2H65.1824V72.1L65.0824 72L64.9824 71.9L64.8824 71.8V71.7H64.7824V71.6H64.6824L64.5824 71.5L64.4824 71.3V71.2H64.3824V71.1L64.2824 71L64.1824 70.9L64.0824 70.8V70.7L63.9824 70.6V70.5H63.8824V70.4L63.7824 70.3L63.6824 70.1L63.5824 70L63.4824 69.9V69.8L63.3824 69.7V69.6V69.5L63.2824 69.4L63.1824 69.2L63.0824 69.1L62.9824 68.9V68.8L62.8824 68.6L62.7824 68.5V68.3L62.6824 68.1L62.5824 68V67.8L62.4824 67.6L62.3824 67.5V67.4V67.3L62.2824 67.1V67V66.9L62.1824 66.8V66.7V66.6L62.0824 66.4C62.0824 66.3333 62.0491 66.2333 61.9824 66.1V65.9V65.8L61.8824 65.7V65.6V65.5V65.4V65.3L61.7824 65.2V65.1V65V64.9V64.8L61.6824 64.7V64.6V64.5V64.4V64.3V64.2L61.5824 64V63.9V63.8V63.7V63.6V63.4V63.2V63L61.4824 62.8V62.6V62.4V62.2V62V61.9V61.7V61.3V61.2V60.9V60.8V60.7V60.6V60.5V60.4V60.3V60.1V60V59.8V59.7V59.5V59.4V59.2V59V58.9V58.7V58.5V58.4V58.3V58.1V57.9V57.7V57.6V57.5V57.3V57.1V57V56.8V56.6V56.3V56.1V56V55.9V55.3V55.1V54.9V54.8V54.5V54.3V54.1V54V53.4V53.3V53.1V52.9V52.8V52.5V52.4V52.2V52V51.2V51.1V50.8V50.6V50.5V50.2V50.1V49.8V48V47.9V47.5V47.4V46.9V46.7V45.7V45.5V37.8V29.2H55.1824C54.7824 29.2 54.5158 29 54.3824 28.6C54.2491 28.0667 54.4491 27.7333 54.9824 27.6C57.8491 26.7333 60.3158 25.1667 62.3824 22.9C64.5158 20.6333 66.1824 17.6333 67.3824 13.9C67.5158 13.5 67.7824 13.3 68.1824 13.3C68.7158 13.3 68.9824 13.6 68.9824 14.2V27.6H74.6824C75.2824 27.6 75.5824 27.8667 75.5824 28.4C75.5824 28.9333 75.2824 29.2 74.6824 29.2H68.9824V49.8C68.9824 49.8667 68.9824 49.9 68.9824 49.9V63.4C68.9824 67.8 69.6824 70.9667 71.0824 72.9C72.1491 74.3667 73.6824 75.1667 75.6824 75.3H75.8824H75.9824C76.1158 75.3 76.2491 75.3 76.3824 75.3ZM124.708 75.4C125.242 75.4 125.508 75.6667 125.508 76.2C125.508 76.7333 125.242 77 124.708 77H116.108C115.575 77 115.308 76.7333 115.308 76.2V67C114.775 68.1333 114.142 69.2 113.408 70.2C111.008 73.4 107.808 75.4 103.808 76.2C103.742 76.2667 103.675 76.3 103.608 76.3H103.508H103.408H103.308L103.208 76.4H103.108H103.008H102.908H102.808H102.708H102.608V76.5H102.508H102.408H102.308H102.208H102.108H102.008H101.908H101.808H101.708V76.6H101.608H101.508H101.408H101.308H101.208H101.108H101.008H100.908H100.808H100.708H100.608H100.508H100.308H100.108H99.9082H99.7082H99.6082H99.4082H99.2082H99.1082L98.9082 76.5H98.7082H98.5082H98.4082H98.2082H98.0082L97.9082 76.4H97.7082H97.5082H97.4082L97.2082 76.3H97.0082H96.8082L96.7082 76.2H96.5082L96.3082 76.1H96.2082H96.0082L95.8082 76H95.7082L95.5082 75.9H95.3082L95.2082 75.8H95.0082L94.8082 75.7H94.7082L94.5082 75.6L94.4082 75.5H94.2082L94.0082 75.4H93.9082L93.7082 75.3L93.5082 75.2L93.4082 75.1H93.2082L93.1082 75L92.9082 74.9L92.7082 74.8H92.6082L92.4082 74.7L92.3082 74.6L92.1082 74.5L92.0082 74.4L91.8082 74.3H91.7082L91.5082 74.2L91.4082 74.1L91.2082 74L91.1082 73.9L90.9082 73.8L90.8082 73.7L90.6082 73.6L90.5082 73.5L90.3082 73.4L90.2082 73.3L90.0082 73.1L89.9082 73C86.6415 70.4 84.5082 66.7667 83.5082 62.1C83.1749 60.3667 83.0082 58.5333 83.0082 56.6V41.6C83.0082 39.4 82.8415 37.9 82.5082 37.1C82.1749 36.3 81.4082 35.7 80.2082 35.3C79.7415 35.1 79.6082 34.7333 79.8082 34.2C79.8749 34 80.0082 33.8667 80.2082 33.8C82.5415 32.6 84.2415 31.7 85.3082 31.1C86.8415 30.1667 88.1082 29.1333 89.1082 28C89.5082 27.6 89.9082 27.6 90.3082 28C90.4415 28.1333 90.5082 28.3333 90.5082 28.6V44.2V57.7C90.5082 58.9667 90.5749 60.1333 90.7082 61.2C91.0415 65.8 92.2082 69.2333 94.2082 71.5C96.0749 73.6333 98.6749 74.7 102.008 74.7C102.475 74.7 102.942 74.7 103.408 74.7C107.075 73.9 109.975 72.0667 112.108 69.2C114.175 66.4667 115.242 63.1667 115.308 59.3V41.5C115.308 39.3 115.142 37.8 114.808 37C114.475 36.2 113.708 35.6 112.508 35.2C112.042 35 111.875 34.6333 112.008 34.1C112.142 33.9 112.275 33.7667 112.408 33.7C114.808 32.5 116.542 31.6 117.608 31C119.142 30.0667 120.408 29.0333 121.408 27.9C121.808 27.5 122.208 27.5 122.608 27.9C122.742 28.0333 122.808 28.2333 122.808 28.5V75.4H124.708ZM102.708 22.3C102.108 22.3667 101.808 22.1333 101.808 21.6C101.675 18.8667 102.108 16.3333 103.108 14C103.642 12.7333 104.275 11.7 105.008 10.9C105.875 10.0333 106.808 9.56666 107.808 9.5C108.275 9.5 108.775 9.6 109.308 9.79999C109.375 9.79999 109.442 9.83333 109.508 9.9C109.775 10.1667 110.008 10.4333 110.208 10.7C110.675 11.7 110.675 12.9 110.208 14.3C109.742 15.5 108.975 16.7667 107.908 18.1C106.442 19.8333 104.808 21.2 103.008 22.2C102.942 22.2667 102.842 22.3 102.708 22.3ZM172.706 75.4C173.239 75.4 173.506 75.6667 173.506 76.2C173.506 76.7333 173.239 77 172.706 77H161.406C160.873 77 160.606 76.7333 160.606 76.2C160.606 75.6667 160.873 75.4 161.406 75.4H162.606L147.706 49.4L140.606 56.1V75.4H142.506C143.039 75.4 143.306 75.6667 143.306 76.2C143.306 76.7333 143.039 77 142.506 77H131.306C130.773 77 130.506 76.7333 130.506 76.2C130.506 75.6667 130.773 75.4 131.306 75.4H133.106V21.2C133.106 19.0667 132.939 17.6 132.606 16.8C132.273 16 131.506 15.3667 130.306 14.9C129.839 14.7 129.706 14.3667 129.906 13.9C129.973 13.7 130.106 13.5333 130.306 13.4C132.639 12.2667 134.339 11.4 135.406 10.8C136.939 9.79999 138.206 8.76666 139.206 7.7C139.606 7.3 140.006 7.26666 140.406 7.6C140.539 7.8 140.606 8 140.606 8.2V53.9L147.306 47.5C147.306 47.5 147.306 47.4667 147.306 47.4L147.906 46.9L151.706 43.3V43.2L166.206 29.3H164.706C164.106 29.3 163.806 29.0333 163.806 28.5C163.806 27.9667 164.106 27.7 164.706 27.7H169.906C170.439 27.7 170.706 27.9667 170.706 28.5C170.706 29.0333 170.439 29.3 169.906 29.3H168.506L153.306 44L171.206 75.4H172.706ZM226.702 75.4V51.1C229.702 50.0333 232.202 48.0667 234.202 45.2V75.4H236.002C236.535 75.4 236.802 75.6667 236.802 76.2C236.802 76.7333 236.535 77 236.002 77H224.802C224.269 77 224.002 76.7333 224.002 76.2C224.002 75.6667 224.269 75.4 224.802 75.4H226.702ZM214.902 46.4V49.2C220.235 49.4 224.169 48.9333 226.702 47.8V41.3C226.702 39.1 226.502 37.6 226.102 36.8C225.769 36 225.035 35.4 223.902 35C223.369 34.8 223.202 34.4333 223.402 33.9C223.469 33.7 223.602 33.5667 223.802 33.5C226.202 32.3667 227.902 31.4667 228.902 30.8C230.435 29.8667 231.735 28.8667 232.802 27.8C233.202 27.4 233.602 27.3667 234.002 27.7C234.135 27.9 234.202 28.1 234.202 28.3V37.7C236.069 33.7667 238.802 31.0667 242.402 29.6C244.735 28.6667 247.135 28.3667 249.602 28.7C252.135 28.9667 254.435 29.8333 256.502 31.3C256.569 31.3 256.669 31.3667 256.802 31.5L256.902 31.6L257.102 31.7L257.202 31.8L257.402 31.9L257.502 32L257.602 32.1L257.702 32.2H257.802V32.3H257.902V32.4H258.002L258.102 32.5L258.202 32.6L258.302 32.7L258.402 32.8L258.502 32.9L258.602 33L258.702 33.1L258.802 33.2V33.3H258.902L259.002 33.4L259.102 33.5L259.202 33.7H259.302L259.402 33.8L259.502 34C259.502 34 259.569 34.0667 259.702 34.2V34.3L259.802 34.4L260.002 34.5L260.102 34.7C262.035 37.3 263.235 40.3667 263.702 43.9V44V44.1V44.2L263.802 44.3V44.5V44.6V44.7V44.8V44.9V45V45.1L263.902 45.3V45.4V45.5V45.7V45.8V46.1V46.4V46.5V46.8V47.1V75.4H265.802C266.335 75.4 266.602 75.6667 266.602 76.2C266.602 76.7333 266.335 77 265.802 77H254.602C254.002 77 253.702 76.7333 253.702 76.2C253.702 75.6667 254.002 75.4 254.602 75.4H256.402V46.2C256.402 45.4667 256.369 44.8 256.302 44.2C256.102 39.6 255.169 36.1 253.502 33.7C251.835 31.3667 249.569 30.2 246.702 30.2C246.502 30.2 246.335 30.2 246.202 30.2C245.135 30.4 244.069 30.7 243.002 31.1C238.535 32.9667 235.602 36.8 234.202 42.6C234.135 42.6667 234.102 42.7333 234.102 42.8C232.102 46.3333 229.635 48.6 226.702 49.6C223.835 50.6 219.902 51 214.902 50.8V75.3H216.702C217.235 75.3 217.502 75.6 217.502 76.2C217.502 76.7333 217.235 77 216.702 77H208.202C207.602 77 207.302 76.7333 207.302 76.2V70C206.169 71.8 204.669 73.3 202.802 74.5C199.535 76.5667 195.702 77.4667 191.302 77.2C186.969 76.9333 183.369 75.5667 180.502 73.1L180.302 72.9L180.202 72.8L180.002 72.6C179.869 72.4667 179.802 72.4 179.802 72.4L179.602 72.2C179.602 72.2 179.569 72.1333 179.502 72L179.302 71.9C179.302 71.8333 179.235 71.7667 179.102 71.7C177.102 69.2333 176.102 66.4333 176.102 63.3V63.2V63.1V63V62.9V62.8V62.7V62.6V62.4L176.202 62.3V62.2V62.1V62V61.9V61.8V61.7V61.5L176.302 61.3V61.1V61L176.402 60.8V60.7L176.502 60.5V60.3V60.2V60.1L176.602 60V59.9L176.702 59.8V59.7V59.5L176.802 59.4V59.3L176.902 59.1V59L177.002 58.9V58.7L177.102 58.6V58.5L177.202 58.4V58.3L177.302 58.1L177.402 58C178.869 54.9333 181.169 52.6667 184.302 51.2C187.435 49.7333 190.969 48.9667 194.902 48.9H207.302V47.1C207.302 46.6333 207.302 46.2667 207.302 46C207.169 40.5333 206.135 36.4 204.202 33.6C202.202 30.7333 199.235 29.3 195.302 29.3H194.902C194.035 29.3667 193.169 29.4667 192.302 29.6C190.102 30.0667 188.502 31.0333 187.502 32.5C186.502 33.9667 186.135 35.8 186.402 38C186.869 39.6 186.735 40.9333 186.002 42C185.602 42.6 185.069 43 184.402 43.2C184.135 43.2667 183.869 43.3 183.602 43.3C183.402 43.3 183.169 43.2667 182.902 43.2C182.102 43.0667 181.435 42.6 180.902 41.8C180.369 41 180.102 40 180.102 38.8C180.102 35.9333 181.635 33.3667 184.702 31.1C186.769 29.5667 189.202 28.5333 192.002 28H192.102C192.969 27.8 193.869 27.7 194.802 27.7C195.469 27.6333 196.102 27.6333 196.702 27.7H196.802H196.902H197.002H197.202C202.735 28.0333 207.069 29.8667 210.202 33.2C213.335 36.4667 214.902 40.8667 214.902 46.4ZM194.902 50.5C193.102 50.5 191.469 50.8667 190.002 51.6C188.535 52.2667 187.302 53.1333 186.302 54.2C185.369 55.2667 184.602 56.5333 184.002 58C183.202 60.0667 182.902 62.2 183.102 64.4C183.302 66.6667 184.035 68.6333 185.302 70.3C188.235 74.3667 193.002 75.7333 199.602 74.4C200.402 74.0667 201.169 73.6667 201.902 73.2C204.369 71.6 206.169 69.3333 207.302 66.4V50.5H194.902Z" fill="#F5A555"/>
<path d="M70.4383 108C70.3303 108 70.2583 107.958 70.2223 107.874L67.5763 102.294C67.5643 102.258 67.5403 102.24 67.5043 102.24H64.4443C64.3963 102.24 64.3723 102.264 64.3723 102.312V107.82C64.3723 107.94 64.3123 108 64.1923 108H63.2743C63.1543 108 63.0943 107.94 63.0943 107.82V95.58C63.0943 95.46 63.1543 95.4 63.2743 95.4H67.9363C68.9683 95.4 69.8023 95.724 70.4383 96.372C71.0743 97.008 71.3923 97.842 71.3923 98.874C71.3923 99.714 71.1643 100.428 70.7083 101.016C70.2523 101.604 69.6343 101.982 68.8543 102.15C68.8063 102.174 68.7943 102.204 68.8183 102.24L71.5183 107.784C71.5303 107.808 71.5363 107.838 71.5363 107.874C71.5363 107.958 71.4883 108 71.3923 108H70.4383ZM64.4443 96.516C64.3963 96.516 64.3723 96.54 64.3723 96.588V101.142C64.3723 101.19 64.3963 101.214 64.4443 101.214H67.7923C68.4883 101.214 69.0523 100.998 69.4843 100.566C69.9163 100.134 70.1323 99.57 70.1323 98.874C70.1323 98.178 69.9163 97.614 69.4843 97.182C69.0523 96.738 68.4883 96.516 67.7923 96.516H64.4443ZM80.7951 101.916C80.8431 102.252 80.8671 102.672 80.8671 103.176V103.752C80.8671 103.872 80.8071 103.932 80.6871 103.932H74.8731C74.8251 103.932 74.8011 103.956 74.8011 104.004C74.8251 104.664 74.8611 105.09 74.9091 105.282C75.0411 105.822 75.3231 106.248 75.7551 106.56C76.1871 106.872 76.7391 107.028 77.4111 107.028C77.9151 107.028 78.3591 106.914 78.7431 106.686C79.1271 106.458 79.4271 106.134 79.6431 105.714C79.7151 105.606 79.7991 105.582 79.8951 105.642L80.5971 106.056C80.6931 106.116 80.7171 106.2 80.6691 106.308C80.3691 106.884 79.9191 107.34 79.3191 107.676C78.7191 108 78.0291 108.162 77.2491 108.162C76.3971 108.15 75.6831 107.946 75.1071 107.55C74.5311 107.154 74.1171 106.602 73.8651 105.894C73.6491 105.318 73.5411 104.49 73.5411 103.41C73.5411 102.906 73.5471 102.498 73.5591 102.186C73.5831 101.862 73.6311 101.574 73.7031 101.322C73.9071 100.542 74.3151 99.918 74.9271 99.45C75.5511 98.982 76.3011 98.748 77.1771 98.748C78.2691 98.748 79.1091 99.024 79.6971 99.576C80.2851 100.128 80.6511 100.908 80.7951 101.916ZM77.1771 99.864C76.5891 99.864 76.0971 100.02 75.7011 100.332C75.3171 100.632 75.0651 101.04 74.9451 101.556C74.8731 101.808 74.8251 102.216 74.8011 102.78C74.8011 102.828 74.8251 102.852 74.8731 102.852H79.5351C79.5831 102.852 79.6071 102.828 79.6071 102.78C79.5831 102.24 79.5471 101.856 79.4991 101.628C79.3671 101.088 79.0971 100.662 78.6891 100.35C78.2931 100.026 77.7891 99.864 77.1771 99.864ZM82.7662 111.6C82.6822 111.6 82.6402 111.54 82.6402 111.42V110.7C82.6402 110.58 82.7002 110.52 82.8202 110.52H82.8922C83.3602 110.508 83.7202 110.436 83.9722 110.304C84.2362 110.184 84.4582 109.95 84.6382 109.602C84.8302 109.266 85.0342 108.75 85.2502 108.054C85.2742 108.006 85.2742 107.97 85.2502 107.946L82.2082 99.09L82.1902 99.018C82.1902 98.934 82.2442 98.892 82.3522 98.892H83.3062C83.4142 98.892 83.4862 98.94 83.5222 99.036L85.8622 106.308C85.8742 106.332 85.8922 106.344 85.9162 106.344C85.9402 106.344 85.9582 106.332 85.9702 106.308L88.2742 99.036C88.3102 98.94 88.3822 98.892 88.4902 98.892H89.4262C89.5582 98.892 89.6062 98.958 89.5702 99.09L86.2402 108.792C85.9522 109.596 85.6822 110.19 85.4302 110.574C85.1782 110.958 84.8602 111.222 84.4762 111.366C84.1042 111.522 83.5762 111.6 82.8922 111.6H82.7662ZM91.6571 108C91.5371 108 91.4771 107.94 91.4771 107.82V95.58C91.4771 95.46 91.5371 95.4 91.6571 95.4H92.5751C92.6951 95.4 92.7551 95.46 92.7551 95.58V102.942C92.7551 102.966 92.7611 102.984 92.7731 102.996C92.7971 103.008 92.8211 103.002 92.8451 102.978L96.6611 98.982C96.7211 98.922 96.7931 98.892 96.8771 98.892H97.9571C98.0291 98.892 98.0771 98.916 98.1011 98.964C98.1251 99.012 98.1131 99.06 98.0651 99.108L95.7611 101.664C95.7371 101.688 95.7311 101.718 95.7431 101.754L98.4971 107.784L98.5151 107.856C98.5151 107.952 98.4611 108 98.3531 108H97.3811C97.2851 108 97.2191 107.952 97.1831 107.856L94.8611 102.6C94.8371 102.552 94.8071 102.546 94.7711 102.582L92.7911 104.67C92.7671 104.694 92.7551 104.724 92.7551 104.76V107.82C92.7551 107.94 92.6951 108 92.5751 108H91.6571ZM101.179 97.236C100.879 97.236 100.633 97.14 100.441 96.948C100.261 96.756 100.171 96.516 100.171 96.228C100.171 95.928 100.261 95.688 100.441 95.508C100.633 95.316 100.879 95.22 101.179 95.22C101.467 95.22 101.707 95.316 101.899 95.508C102.091 95.688 102.187 95.928 102.187 96.228C102.187 96.516 102.091 96.756 101.899 96.948C101.707 97.14 101.467 97.236 101.179 97.236ZM98.6047 111.744C98.4847 111.744 98.4247 111.684 98.4247 111.564V110.826C98.4247 110.706 98.4847 110.646 98.6047 110.646C99.8887 110.634 100.531 110.016 100.531 108.792V99.072C100.531 98.952 100.591 98.892 100.711 98.892H101.629C101.749 98.892 101.809 98.952 101.809 99.072V108.792C101.809 109.812 101.557 110.556 101.053 111.024C100.549 111.492 99.7327 111.732 98.6047 111.744ZM108.057 98.748C109.137 98.748 109.971 99.024 110.559 99.576C111.147 100.128 111.441 100.86 111.441 101.772V107.82C111.441 107.94 111.381 108 111.261 108H110.343C110.223 108 110.163 107.94 110.163 107.82V107.082C110.163 107.058 110.151 107.04 110.127 107.028C110.115 107.016 110.097 107.022 110.073 107.046C109.773 107.406 109.383 107.682 108.903 107.874C108.423 108.054 107.889 108.144 107.301 108.144C106.449 108.144 105.735 107.928 105.159 107.496C104.583 107.064 104.295 106.404 104.295 105.516C104.295 104.616 104.619 103.908 105.267 103.392C105.927 102.864 106.839 102.6 108.003 102.6H110.091C110.139 102.6 110.163 102.576 110.163 102.528V101.844C110.163 101.232 109.989 100.752 109.641 100.404C109.305 100.044 108.777 99.864 108.057 99.864C107.481 99.864 107.013 99.978 106.653 100.206C106.293 100.422 106.071 100.728 105.987 101.124C105.951 101.244 105.879 101.298 105.771 101.286L104.799 101.16C104.667 101.136 104.613 101.088 104.637 101.016C104.733 100.344 105.093 99.798 105.717 99.378C106.341 98.958 107.121 98.748 108.057 98.748ZM107.553 107.046C108.261 107.046 108.873 106.872 109.389 106.524C109.905 106.164 110.163 105.684 110.163 105.084V103.68C110.163 103.632 110.139 103.608 110.091 103.608H108.201C107.409 103.608 106.773 103.77 106.293 104.094C105.813 104.418 105.573 104.868 105.573 105.444C105.573 105.972 105.753 106.374 106.113 106.65C106.485 106.914 106.965 107.046 107.553 107.046ZM116.317 108C116.209 108 116.137 107.952 116.101 107.856L113.149 99.09L113.131 99.018C113.131 98.934 113.185 98.892 113.293 98.892H114.319C114.427 98.892 114.499 98.94 114.535 99.036L116.785 106.092C116.797 106.116 116.815 106.128 116.839 106.128C116.863 106.128 116.881 106.116 116.893 106.092L119.143 99.036C119.179 98.94 119.251 98.892 119.359 98.892L120.385 98.91C120.517 98.91 120.565 98.976 120.529 99.108L117.577 107.856C117.541 107.952 117.469 108 117.361 108H116.317ZM122.538 108C122.418 108 122.358 107.94 122.358 107.82V99.072C122.358 98.952 122.418 98.892 122.538 98.892H123.456C123.576 98.892 123.636 98.952 123.636 99.072V107.82C123.636 107.94 123.576 108 123.456 108H122.538ZM122.412 97.704C122.34 97.704 122.292 97.686 122.268 97.65C122.244 97.602 122.25 97.548 122.286 97.488L123.366 95.526C123.402 95.442 123.474 95.4 123.582 95.4H124.392C124.464 95.4 124.506 95.424 124.518 95.472C124.542 95.508 124.536 95.556 124.5 95.616L123.276 97.578C123.216 97.662 123.144 97.704 123.06 97.704H122.412ZM126.532 108C126.412 108 126.352 107.94 126.352 107.82V95.58C126.352 95.46 126.412 95.4 126.532 95.4H127.45C127.57 95.4 127.63 95.46 127.63 95.58V102.942C127.63 102.966 127.636 102.984 127.648 102.996C127.672 103.008 127.696 103.002 127.72 102.978L131.536 98.982C131.596 98.922 131.668 98.892 131.752 98.892H132.832C132.904 98.892 132.952 98.916 132.976 98.964C133 99.012 132.988 99.06 132.94 99.108L130.636 101.664C130.612 101.688 130.606 101.718 130.618 101.754L133.372 107.784L133.39 107.856C133.39 107.952 133.336 108 133.228 108H132.256C132.16 108 132.094 107.952 132.058 107.856L129.736 102.6C129.712 102.552 129.682 102.546 129.646 102.582L127.666 104.67C127.642 104.694 127.63 104.724 127.63 104.76V107.82C127.63 107.94 127.57 108 127.45 108H126.532ZM142.861 108.144C141.505 108.144 140.431 107.838 139.639 107.226C138.859 106.614 138.469 105.798 138.469 104.778V104.22C138.469 104.1 138.529 104.04 138.649 104.04H139.531C139.651 104.04 139.711 104.1 139.711 104.22V104.706C139.711 105.402 139.999 105.966 140.575 106.398C141.151 106.818 141.949 107.028 142.969 107.028C143.893 107.028 144.595 106.836 145.075 106.452C145.555 106.056 145.795 105.534 145.795 104.886C145.795 104.466 145.681 104.106 145.453 103.806C145.237 103.506 144.895 103.224 144.427 102.96C143.971 102.696 143.323 102.39 142.483 102.042C141.583 101.682 140.881 101.37 140.377 101.106C139.885 100.83 139.483 100.482 139.171 100.062C138.871 99.63 138.721 99.09 138.721 98.442C138.721 97.434 139.069 96.654 139.765 96.102C140.473 95.538 141.439 95.256 142.663 95.256C143.995 95.256 145.045 95.568 145.813 96.192C146.581 96.816 146.965 97.644 146.965 98.676V99.072C146.965 99.192 146.905 99.252 146.785 99.252H145.885C145.765 99.252 145.705 99.192 145.705 99.072V98.748C145.705 98.052 145.429 97.482 144.877 97.038C144.337 96.594 143.581 96.372 142.609 96.372C141.757 96.372 141.103 96.546 140.647 96.894C140.191 97.242 139.963 97.746 139.963 98.406C139.963 98.838 140.071 99.198 140.287 99.486C140.515 99.762 140.833 100.008 141.241 100.224C141.661 100.428 142.303 100.698 143.167 101.034C144.043 101.394 144.745 101.73 145.273 102.042C145.813 102.354 146.245 102.738 146.569 103.194C146.905 103.638 147.073 104.184 147.073 104.832C147.073 105.84 146.701 106.644 145.957 107.244C145.213 107.844 144.181 108.144 142.861 108.144ZM156.559 101.16C156.739 101.736 156.829 102.498 156.829 103.446C156.829 104.406 156.751 105.15 156.595 105.678C156.379 106.446 155.983 107.052 155.407 107.496C154.843 107.928 154.129 108.144 153.265 108.144C152.797 108.144 152.365 108.054 151.969 107.874C151.573 107.682 151.243 107.412 150.979 107.064C150.955 107.04 150.931 107.034 150.907 107.046C150.895 107.046 150.889 107.058 150.889 107.082V111.312C150.889 111.432 150.829 111.492 150.709 111.492H149.791C149.671 111.492 149.611 111.432 149.611 111.312V99.072C149.611 98.952 149.671 98.892 149.791 98.892H150.709C150.829 98.892 150.889 98.952 150.889 99.072V99.828C150.889 99.852 150.895 99.87 150.907 99.882C150.931 99.882 150.955 99.87 150.979 99.846C151.243 99.498 151.567 99.228 151.951 99.036C152.347 98.844 152.785 98.748 153.265 98.748C154.105 98.748 154.807 98.964 155.371 99.396C155.947 99.828 156.343 100.416 156.559 101.16ZM155.137 105.714C155.269 105.45 155.365 105.156 155.425 104.832C155.497 104.496 155.533 104.034 155.533 103.446C155.533 102.882 155.509 102.444 155.461 102.132C155.413 101.808 155.329 101.52 155.209 101.268C155.065 100.836 154.807 100.494 154.435 100.242C154.075 99.99 153.643 99.864 153.139 99.864C152.659 99.864 152.257 99.99 151.933 100.242C151.609 100.494 151.369 100.83 151.213 101.25C151.105 101.49 151.027 101.772 150.979 102.096C150.931 102.42 150.907 102.87 150.907 103.446C150.907 104.022 150.931 104.478 150.979 104.814C151.027 105.138 151.111 105.426 151.231 105.678C151.375 106.086 151.609 106.416 151.933 106.668C152.269 106.908 152.665 107.028 153.121 107.028C153.601 107.028 154.015 106.908 154.363 106.668C154.723 106.428 154.981 106.11 155.137 105.714ZM162.768 108.144C161.904 108.144 161.16 107.922 160.536 107.478C159.912 107.034 159.48 106.422 159.24 105.642C159.072 105.09 158.988 104.352 158.988 103.428C158.988 102.504 159.072 101.772 159.24 101.232C159.468 100.464 159.894 99.858 160.518 99.414C161.142 98.97 161.898 98.748 162.786 98.748C163.638 98.748 164.37 98.97 164.982 99.414C165.606 99.858 166.032 100.458 166.26 101.214C166.428 101.73 166.512 102.468 166.512 103.428C166.512 104.4 166.428 105.138 166.26 105.642C166.032 106.422 165.606 107.034 164.982 107.478C164.37 107.922 163.632 108.144 162.768 108.144ZM162.768 107.028C163.344 107.028 163.836 106.872 164.244 106.56C164.652 106.236 164.928 105.804 165.072 105.264C165.18 104.832 165.234 104.226 165.234 103.446C165.234 102.654 165.186 102.048 165.09 101.628C164.946 101.088 164.664 100.662 164.244 100.35C163.836 100.026 163.338 99.864 162.75 99.864C162.162 99.864 161.664 100.026 161.256 100.35C160.848 100.662 160.572 101.088 160.428 101.628C160.332 102.048 160.284 102.654 160.284 103.446C160.284 104.238 160.332 104.844 160.428 105.264C160.56 105.804 160.83 106.236 161.238 106.56C161.658 106.872 162.168 107.028 162.768 107.028ZM172.774 98.802C173.17 98.802 173.512 98.88 173.8 99.036C173.896 99.084 173.932 99.162 173.908 99.27L173.71 100.152C173.674 100.272 173.596 100.308 173.476 100.26C173.272 100.176 173.038 100.134 172.774 100.134L172.54 100.152C171.916 100.176 171.4 100.41 170.992 100.854C170.584 101.286 170.38 101.838 170.38 102.51V107.82C170.38 107.94 170.32 108 170.2 108H169.282C169.162 108 169.102 107.94 169.102 107.82V99.072C169.102 98.952 169.162 98.892 169.282 98.892H170.2C170.32 98.892 170.38 98.952 170.38 99.072V100.17C170.38 100.206 170.386 100.23 170.398 100.242C170.422 100.242 170.44 100.23 170.452 100.206C170.704 99.762 171.022 99.42 171.406 99.18C171.802 98.928 172.258 98.802 172.774 98.802ZM179.991 99.774C179.991 99.894 179.931 99.954 179.811 99.954H177.777C177.729 99.954 177.705 99.978 177.705 100.026V105.336C177.705 105.912 177.831 106.32 178.083 106.56C178.347 106.788 178.755 106.902 179.307 106.902H179.757C179.877 106.902 179.937 106.962 179.937 107.082V107.82C179.937 107.94 179.877 108 179.757 108C179.613 108.012 179.391 108.018 179.091 108.018C178.227 108.018 177.573 107.856 177.129 107.532C176.685 107.208 176.463 106.608 176.463 105.732V100.026C176.463 99.978 176.439 99.954 176.391 99.954H175.293C175.173 99.954 175.113 99.894 175.113 99.774V99.072C175.113 98.952 175.173 98.892 175.293 98.892H176.391C176.439 98.892 176.463 98.868 176.463 98.82V96.732C176.463 96.612 176.523 96.552 176.643 96.552H177.525C177.645 96.552 177.705 96.612 177.705 96.732V98.82C177.705 98.868 177.729 98.892 177.777 98.892H179.811C179.931 98.892 179.991 98.952 179.991 99.072V99.774ZM189.463 101.214C189.607 101.754 189.679 102.498 189.679 103.446C189.679 104.43 189.595 105.192 189.427 105.732C189.199 106.476 188.803 107.064 188.239 107.496C187.675 107.928 186.973 108.144 186.133 108.144C185.653 108.144 185.215 108.048 184.819 107.856C184.423 107.664 184.093 107.388 183.829 107.028C183.817 107.004 183.799 106.998 183.775 107.01C183.751 107.01 183.739 107.022 183.739 107.046V107.82C183.739 107.94 183.679 108 183.559 108H182.641C182.521 108 182.461 107.94 182.461 107.82V95.58C182.461 95.46 182.521 95.4 182.641 95.4H183.559C183.679 95.4 183.739 95.46 183.739 95.58V99.828C183.739 99.852 183.745 99.87 183.757 99.882C183.781 99.882 183.805 99.87 183.829 99.846C184.093 99.498 184.423 99.228 184.819 99.036C185.215 98.844 185.653 98.748 186.133 98.748C186.985 98.748 187.699 98.97 188.275 99.414C188.851 99.846 189.247 100.446 189.463 101.214ZM188.077 105.624C188.197 105.372 188.281 105.09 188.329 104.778C188.377 104.454 188.401 104.01 188.401 103.446C188.401 102.858 188.365 102.402 188.293 102.078C188.233 101.742 188.131 101.442 187.987 101.178C187.831 100.782 187.579 100.464 187.231 100.224C186.883 99.984 186.469 99.864 185.989 99.864C185.533 99.864 185.137 99.99 184.801 100.242C184.477 100.482 184.243 100.806 184.099 101.214C183.979 101.466 183.889 101.754 183.829 102.078C183.781 102.402 183.757 102.858 183.757 103.446C183.757 104.022 183.781 104.472 183.829 104.796C183.889 105.108 183.973 105.39 184.081 105.642C184.237 106.062 184.477 106.398 184.801 106.65C185.125 106.902 185.527 107.028 186.007 107.028C186.511 107.028 186.943 106.902 187.303 106.65C187.675 106.398 187.933 106.056 188.077 105.624ZM195.438 98.748C196.518 98.748 197.352 99.024 197.94 99.576C198.528 100.128 198.822 100.86 198.822 101.772V107.82C198.822 107.94 198.762 108 198.642 108H197.724C197.604 108 197.544 107.94 197.544 107.82V107.082C197.544 107.058 197.532 107.04 197.508 107.028C197.496 107.016 197.478 107.022 197.454 107.046C197.154 107.406 196.764 107.682 196.284 107.874C195.804 108.054 195.27 108.144 194.682 108.144C193.83 108.144 193.116 107.928 192.54 107.496C191.964 107.064 191.676 106.404 191.676 105.516C191.676 104.616 192 103.908 192.648 103.392C193.308 102.864 194.22 102.6 195.384 102.6H197.472C197.52 102.6 197.544 102.576 197.544 102.528V101.844C197.544 101.232 197.37 100.752 197.022 100.404C196.686 100.044 196.158 99.864 195.438 99.864C194.862 99.864 194.394 99.978 194.034 100.206C193.674 100.422 193.452 100.728 193.368 101.124C193.332 101.244 193.26 101.298 193.152 101.286L192.18 101.16C192.048 101.136 191.994 101.088 192.018 101.016C192.114 100.344 192.474 99.798 193.098 99.378C193.722 98.958 194.502 98.748 195.438 98.748ZM194.934 107.046C195.642 107.046 196.254 106.872 196.77 106.524C197.286 106.164 197.544 105.684 197.544 105.084V103.68C197.544 103.632 197.52 103.608 197.472 103.608H195.582C194.79 103.608 194.154 103.77 193.674 104.094C193.194 104.418 192.954 104.868 192.954 105.444C192.954 105.972 193.134 106.374 193.494 106.65C193.866 106.914 194.346 107.046 194.934 107.046ZM205.153 98.802C205.549 98.802 205.891 98.88 206.179 99.036C206.275 99.084 206.311 99.162 206.287 99.27L206.089 100.152C206.053 100.272 205.975 100.308 205.855 100.26C205.651 100.176 205.417 100.134 205.153 100.134L204.919 100.152C204.295 100.176 203.779 100.41 203.371 100.854C202.963 101.286 202.759 101.838 202.759 102.51V107.82C202.759 107.94 202.699 108 202.579 108H201.661C201.541 108 201.481 107.94 201.481 107.82V99.072C201.481 98.952 201.541 98.892 201.661 98.892H202.579C202.699 98.892 202.759 98.952 202.759 99.072V100.17C202.759 100.206 202.765 100.23 202.777 100.242C202.801 100.242 202.819 100.23 202.831 100.206C203.083 99.762 203.401 99.42 203.785 99.18C204.181 98.928 204.637 98.802 205.153 98.802Z" fill="#F5A555"/>
</svg>
